<?xml version="1.0" encoding="UTF-8" standalone="no"?>
<svg
   width="100%"
   height="100%"
   viewBox="0 0 1500 1500"
   version="1.1"
   xml:space="preserve"
   style="fill-rule:evenodd;clip-rule:evenodd;stroke-linecap:round;stroke-linejoin:round;stroke-miterlimit:1.5;"
   id="svg79"
   sodipodi:docname="Documento.svg"
   inkscape:export-filename="Documento.png"
   inkscape:export-xdpi="96"
   inkscape:export-ydpi="96"
   inkscape:version="1.2.1 (9c6d41e410, 2022-07-14)"
   xmlns:inkscape="http://www.inkscape.org/namespaces/inkscape"
   xmlns:sodipodi="http://sodipodi.sourceforge.net/DTD/sodipodi-0.dtd"
   xmlns="http://www.w3.org/2000/svg"
   xmlns:svg="http://www.w3.org/2000/svg"
   xmlns:serif="http://www.serif.com/"><defs
   id="defs83" /><sodipodi:namedview
   id="namedview81"
   pagecolor="#505050"
   bordercolor="#eeeeee"
   borderopacity="1"
   inkscape:showpageshadow="0"
   inkscape:pageopacity="0"
   inkscape:pagecheckerboard="0"
   inkscape:deskcolor="#505050"
   showgrid="false"
   inkscape:zoom="0.55466667"
   inkscape:cx="548.07692"
   inkscape:cy="750.90144"
   inkscape:window-width="1920"
   inkscape:window-height="1026"
   inkscape:window-x="-9"
   inkscape:window-y="16"
   inkscape:window-maximized="1"
   inkscape:current-layer="g23" />
    <g
   transform="matrix(1.328647,0,0,1.328647,-155.205879,-294.438825)"
   id="g4"
   style="fill:none">
        <circle
   cx="681.299"
   cy="786.092"
   r="535.224"
   style="fill:none;stroke:black;stroke-width:12.54px"
   id="circle2" />
    </g>
    <g
   transform="matrix(1.271238,0,0,1.271238,-116.093237,-249.310128)"
   id="g8"
   style="fill:none">
        <circle
   cx="681.299"
   cy="786.092"
   r="535.224"
   style="fill:none;stroke:black;stroke-width:6.56px"
   id="circle6" />
    </g>
    <g
   transform="matrix(1.220035,0,0,1.220035,-81.208838,-209.060035)"
   id="g12"
   style="fill:none">
        <circle
   cx="681.299"
   cy="786.092"
   r="535.224"
   style="fill:none;stroke:black;stroke-width:6.83px"
   id="circle10" />
    </g>
    <g
   transform="matrix(0.399499,0,0,0.399499,750,750)"
   id="g25">
        <g
   transform="matrix(1,0,0,1,-741.666667,-1060.416667)"
   id="g23">
            <g
   id="_-fefefeff"
   serif:id="#fefefeff"
   transform="matrix(4.166667,0,0,4.166667,0,0)">
                <path
   d="M0,0L356,0L356,509L0,509L0,0M151.19,42.18C137.93,53.08 131.44,69.68 126.56,85.64C121.15,103.24 119.73,121.7 115.76,139.61C113.32,148.54 109.49,158.16 101.5,163.48C97.47,166.41 92.13,165.51 88.29,162.75C80.57,157.54 74.28,149.69 64.93,147.3C56.45,144.8 46.69,148.61 41.9,155.97C36.88,163.28 35.98,172.98 38.66,181.33C40.22,186.4 44.39,191.18 49.97,191.56C53.63,192.01 57.02,190.31 60.05,188.47C56.16,188.5 51.74,189.21 48.57,186.37C43.35,181.41 42.83,172.09 47.78,166.75C50.86,163.42 56,162.61 60.21,163.91C64.61,165.77 66.67,170.45 68.24,174.64C72.75,187.63 76.89,201.33 86.06,211.92C91.63,217.96 98.21,223.55 106.27,225.81C109.42,229.46 108.28,234.59 108.34,238.99C108.35,256.66 108.43,274.33 108.11,292C107.48,302.78 107.96,313.67 106.15,324.36C103.98,331.88 99.7,338.57 97.02,345.91C91.9,358.92 91.71,373.23 92.83,386.97C95.79,413.19 104.13,438.38 112.68,463.21C114.43,467.83 115.76,472.62 117.96,477.06C117.58,473.33 116.5,469.72 115.7,466.07C111.84,449.71 108.14,433.3 105.01,416.78C102.79,404.63 100.29,392.42 100.31,380.02C100.15,370.27 101.46,360.52 103.93,351.1C106.23,341.98 110.85,333.49 111.86,324.04C114.32,303.79 113.15,283.34 114.18,263.01C114.15,245.8 113.62,228.46 116.67,211.45C118.43,203.95 120.88,196.06 126.59,190.58C132.07,185.41 140.54,185.28 147.21,187.98C154.25,190.85 160.97,194.54 167.19,198.91C169.51,200.47 171.52,202.55 174.14,203.64C174.17,192.99 175.02,182.28 174.31,171.66C162.29,162.26 154.79,147.89 152.43,132.95C150.33,116.28 152.66,99.44 154.81,82.9C157.01,85.99 158.11,89.68 159.97,92.97C169.66,110.84 186.04,124.57 204.61,132.52C208.81,134.39 213.37,135.17 217.7,136.66C217.7,151.31 209.45,165.45 196.44,172.3C196.65,183.21 196.3,194.14 196.05,205.05C201.02,202.22 206.03,198.84 211.96,198.64C219.34,197.96 225.32,203.04 230.83,207.17C251.93,224.27 270.79,243.87 289.94,263.06C299.14,272.76 308.81,281.98 317.64,292.02C315.03,302.85 310.12,312.98 304.71,322.67C298.63,333.94 291.72,344.76 283.96,354.94C281.64,358.03 278.98,360.88 277.02,364.23C281.96,360.86 285.79,356.18 290.06,352.05C307.38,334.13 324.35,314.36 331.54,289.99C316.01,274.96 298.81,261.75 282.96,247.05C279.21,243.42 274.7,240.69 271,236.99C266.61,232.68 261.45,229.24 257.23,224.75C248.62,216.61 238.95,209.69 229.96,202.01C237.64,191.67 243.63,180.04 247.41,167.72C253.17,148.37 256.37,128.17 255.74,107.95C255.62,88.18 250.24,67.88 237.74,52.26C228.38,39.99 214.32,31.29 198.92,29.3C182.13,26.59 164.21,31.1 151.19,42.18M139.66,241.68C136.38,244.37 132.93,246.9 130,249.98C123.44,257.69 120.55,267.94 120.41,277.93C120.3,286.3 120.31,294.68 120.4,303.05C120.7,315.87 123.82,328.37 126.38,340.86C128.41,350.95 132.62,360.4 135.53,370.23C136.19,372.31 136.46,374.54 135.72,376.65C133.11,385.56 130.3,394.6 130.3,403.98C130.07,416.66 129.9,429.54 132.99,441.94C136.14,453.9 138.65,466.1 143.35,477.59C183.47,477.73 223.61,477.65 263.73,477.63C264.78,475.33 265.85,473.04 266.58,470.62C271.72,454.19 276.5,437.35 276.72,420.01C277.38,407.32 277.58,394.3 273.95,382C271.8,374.38 269,366.44 263.05,360.92C258.07,356.19 253.35,350.75 246.71,348.34C226.74,340.88 204.89,337.59 183.71,340.5C182.4,336.01 185.46,331.99 186.97,327.98C189.77,320.93 194.7,315.09 198.74,308.77C200.52,306.27 201.94,303.4 204.35,301.43C209.58,300.89 215.11,301.38 219.95,298.91C227.32,295.89 231.8,288.59 234.19,281.32C235.8,273.75 234.69,265.64 231.24,258.72C228.31,253.39 222.21,249.44 215.98,250.62C203.51,251.36 193.19,259.5 185.55,268.8C183.89,266.36 183.42,263.39 182.39,260.68C179.7,253.02 174.79,246.45 169.98,240.01C167.89,237.63 165.57,234.42 162.03,234.59C154.16,234.92 145.96,236.67 139.66,241.68Z"
   style="fill:rgb(254,254,254);fill-opacity:0;fill-rule:nonzero;"
   id="path14" />
            </g>
            <g
   id="_-424242ff"
   serif:id="#424242ff"
   transform="matrix(4.166667,0,0,4.166667,0,0)">
                <path
   d="M151.19,42.18C164.21,31.1 182.13,26.59 198.92,29.3C214.32,31.29 228.38,39.99 237.74,52.26C250.24,67.88 255.62,88.18 255.74,107.95C256.37,128.17 253.17,148.37 247.41,167.72C243.63,180.04 237.64,191.67 229.96,202.01C238.95,209.69 248.62,216.61 257.23,224.75C261.45,229.24 266.61,232.68 271,236.99C274.7,240.69 279.21,243.42 282.96,247.05C298.81,261.75 316.01,274.96 331.54,289.99C324.35,314.36 307.38,334.13 290.06,352.05C285.79,356.18 281.96,360.86 277.02,364.23C278.98,360.88 281.64,358.03 283.96,354.94C291.72,344.76 298.63,333.94 304.71,322.67C310.12,312.98 315.03,302.85 317.64,292.02C308.81,281.98 299.14,272.76 289.94,263.06C270.79,243.87 251.93,224.27 230.83,207.17C225.32,203.04 219.34,197.96 211.96,198.64C206.03,198.84 201.02,202.22 196.05,205.05C196.3,194.14 196.65,183.21 196.44,172.3C209.45,165.45 217.7,151.31 217.7,136.66C213.37,135.17 208.81,134.39 204.61,132.52C186.04,124.57 169.66,110.84 159.97,92.97C158.11,89.68 157.01,85.99 154.81,82.9C152.66,99.44 150.33,116.28 152.43,132.95C154.79,147.89 162.29,162.26 174.31,171.66C175.02,182.28 174.17,192.99 174.14,203.64C171.52,202.55 169.51,200.47 167.19,198.91C160.97,194.54 154.25,190.85 147.21,187.98C140.54,185.28 132.07,185.41 126.59,190.58C120.88,196.06 118.43,203.95 116.67,211.45C113.62,228.46 114.15,245.8 114.18,263.01C113.15,283.34 114.32,303.79 111.86,324.04C110.85,333.49 106.23,341.98 103.93,351.1C101.46,360.52 100.15,370.27 100.31,380.02C100.29,392.42 102.79,404.63 105.01,416.78C108.14,433.3 111.84,449.71 115.7,466.07C116.5,469.72 117.58,473.33 117.96,477.06C115.76,472.62 114.43,467.83 112.68,463.21C104.13,438.38 95.79,413.19 92.83,386.97C91.71,373.23 91.9,358.92 97.02,345.91C99.7,338.57 103.98,331.88 106.15,324.36C107.96,313.67 107.48,302.78 108.11,292C108.43,274.33 108.35,256.66 108.34,238.99C108.28,234.59 109.42,229.46 106.27,225.81C98.21,223.55 91.63,217.96 86.06,211.92C76.89,201.33 72.75,187.63 68.24,174.64C66.67,170.45 64.61,165.77 60.21,163.91C56,162.61 50.86,163.42 47.78,166.75C42.83,172.09 43.35,181.41 48.57,186.37C51.74,189.21 56.16,188.5 60.05,188.47C57.02,190.31 53.63,192.01 49.97,191.56C44.39,191.18 40.22,186.4 38.66,181.33C35.98,172.98 36.88,163.28 41.9,155.97C46.69,148.61 56.45,144.8 64.93,147.3C74.28,149.69 80.57,157.54 88.29,162.75C92.13,165.51 97.47,166.41 101.5,163.48C109.49,158.16 113.32,148.54 115.76,139.61C119.73,121.7 121.15,103.24 126.56,85.64C131.44,69.68 137.93,53.08 151.19,42.18Z"
   style="fill:rgb(2,0,0);fill-rule:nonzero;"
   id="path17" />
            </g>
            <g
   id="_-fc9d81ff"
   serif:id="#fc9d81ff"
   transform="matrix(4.166667,0,0,4.166667,0,0)">
                <path
   d="M139.66,241.68C145.96,236.67 154.16,234.92 162.03,234.59C165.57,234.42 167.89,237.63 169.98,240.01C174.79,246.45 179.7,253.02 182.39,260.68C183.42,263.39 183.89,266.36 185.55,268.8C193.19,259.5 203.51,251.36 215.98,250.62C222.21,249.44 228.31,253.39 231.24,258.72C234.69,265.64 235.8,273.75 234.19,281.32C231.8,288.59 227.32,295.89 219.95,298.91C215.11,301.38 209.58,300.89 204.35,301.43C201.94,303.4 200.52,306.27 198.74,308.77C194.7,315.09 189.77,320.93 186.97,327.98C185.46,331.99 182.4,336.01 183.71,340.5C204.89,337.59 226.74,340.88 246.71,348.34C253.35,350.75 258.07,356.19 263.05,360.92C269,366.44 271.8,374.38 273.95,382C277.58,394.3 277.38,407.32 276.72,420.01C276.5,437.35 271.72,454.19 266.58,470.62C265.85,473.04 264.78,475.33 263.73,477.63C223.61,477.65 183.47,477.73 143.35,477.59C138.65,466.1 136.14,453.9 132.99,441.94C129.9,429.54 130.07,416.66 130.3,403.98C130.3,394.6 133.11,385.56 135.72,376.65C136.46,374.54 136.19,372.31 135.53,370.23C132.62,360.4 128.41,350.95 126.38,340.86C123.82,328.37 120.7,315.87 120.4,303.05C120.31,294.68 120.3,286.3 120.41,277.93C120.55,267.94 123.44,257.69 130,249.98C132.93,246.9 136.38,244.37 139.66,241.68Z"
   style="fill:rgb(237,176,255);fill-rule:nonzero;"
   id="path20" />
            </g>
        </g>
    </g>
    <g
   transform="matrix(1,0,0,1,-51.076676,-62.832607)"
   id="g47">
        <g
   transform="matrix(0.99098,-0.134013,0.134013,0.99098,-48.378504,87.742078)"
   id="g29">
            <text
   x="627.585px"
   y="403.241px"
   style="font-family:'BebasNeue-Regular', 'Bebas Neue', sans-serif;font-size:200px;"
   id="text27">L</text>
        </g>
        <g
   transform="matrix(0.997815,-0.066064,0.066064,0.997815,-24.433373,47.501415)"
   id="g33">
            <text
   x="706.024px"
   y="393.193px"
   style="font-family:'BebasNeue-Regular', 'Bebas Neue', sans-serif;font-size:200px;"
   id="text31">Í</text>
        </g>
        <g
   transform="matrix(0.999993,-0.003783,0.003783,0.999993,-1.467689,2.856779)"
   id="g37">
            <text
   x="754.367px"
   y="389.367px"
   style="font-family:'BebasNeue-Regular', 'Bebas Neue', sans-serif;font-size:200px;"
   id="text35">N</text>
        </g>
        <g
   transform="matrix(0.996517,0.083384,-0.083384,0.996517,35.444444,-69.479488)"
   id="g41">
            <text
   x="849.519px"
   y="389.595px"
   style="font-family:'BebasNeue-Regular', 'Bebas Neue', sans-serif;font-size:200px;"
   id="text39">E</text>
        </g>
        <g
   transform="matrix(0.985479,0.169795,-0.169795,0.985479,80.878796,-152.480632)"
   id="g45">
            <text
   x="931.949px"
   y="396.634px"
   style="font-family:'BebasNeue-Regular', 'Bebas Neue', sans-serif;font-size:200px;"
   id="text43">A</text>
        </g>
    </g>
    <g
   transform="matrix(1,0,0,1,22.824471,451.764165)"
   id="g77">
        <g
   transform="matrix(0.969327,0.245773,-0.245773,0.969327,222.578246,-84.747033)"
   id="g51">
            <text
   x="450.819px"
   y="849.363px"
   style="font-family:'BebasNeue-Regular', 'Bebas Neue', sans-serif;font-size:200.232px;"
   id="text49">&amp;</text>
        </g>
        <g
   transform="matrix(0.994654,0.103268,-0.103268,0.994654,93.851963,-55.553836)"
   id="g55">
            <text
   x="583.446px"
   y="878.613px"
   style="font-family:'BebasNeue-Regular', 'Bebas Neue', sans-serif;font-size:200.232px;"
   id="text53">E</text>
        </g>
        <g
   transform="matrix(0.999819,0.019037,-0.019037,0.999819,17.008514,-12.592812)"
   id="g59">
            <text
   x="669.938px"
   y="887.071px"
   style="font-family:'BebasNeue-Regular', 'Bebas Neue', sans-serif;font-size:200.232px;"
   id="text57">S</text>
        </g>
        <g
   transform="matrix(0.997866,-0.065292,0.065292,0.997866,-56.370901,51.420891)"
   id="g63">
            <text
   x="758.523px"
   y="888.151px"
   style="font-family:'BebasNeue-Regular', 'Bebas Neue', sans-serif;font-size:200.232px;"
   id="text61">T</text>
        </g>
        <g
   transform="matrix(0.990731,-0.135836,0.135836,0.990731,-111.888471,122.996159)"
   id="g67">
            <text
   x="845.333px"
   y="881.382px"
   style="font-family:'BebasNeue-Regular', 'Bebas Neue', sans-serif;font-size:200.232px;"
   id="text65">I</text>
        </g>
        <g
   transform="matrix(0.977222,-0.212218,0.212218,0.977222,-165.148881,210.307748)"
   id="g71">
            <text
   x="897.137px"
   y="874.494px"
   style="font-family:'BebasNeue-Regular', 'Bebas Neue', sans-serif;font-size:200.232px;"
   id="text69">L</text>
        </g>
        <g
   transform="matrix(0.948746,-0.316038,0.316038,0.948746,-220.731648,352.818961)"
   id="g75">
            <text
   x="977.405px"
   y="856.944px"
   style="font-family:'BebasNeue-Regular', 'Bebas Neue', sans-serif;font-size:200.232px;"
   id="text73">O</text>
        </g>
    </g>
</svg>
